<svg width="300" height="300" viewBox="0 0 300 300" fill="none" xmlns="http://www.w3.org/2000/svg">
<path d="M150 0C232.843 0 300 67.1573 300 150C300 232.843 232.843 300 150 300C67.1573 300 0 232.843 0 150C0 67.1573 67.1573 0 150 0ZM149.34 87.04C139.073 87.0401 130.567 89.2398 123.82 93.6396C117.074 97.8929 113.7 103.613 113.7 110.8C113.7 116.96 116.56 121.873 122.28 125.54C128 129.207 136.213 132.58 146.92 135.66L159.9 139.4C175.593 143.947 187.767 149.961 196.42 157.44C205.073 164.92 209.4 174.894 209.4 187.36C209.4 196.747 206.833 205.033 201.7 212.22C196.714 219.26 189.673 224.834 180.58 228.94C171.633 232.9 161.147 234.88 149.12 234.88C138.56 234.88 129.1 233.267 120.74 230.04C112.38 226.813 105.56 222.34 100.28 216.62C95.147 210.754 91.8466 203.86 90.3799 195.94L84 197.7C85.76 206.647 89.5738 214.421 95.4404 221.021C101.454 227.474 109.007 232.534 118.1 236.2C127.34 239.72 137.68 241.48 149.12 241.48C162.32 241.48 173.907 239.207 183.88 234.66C194 230.114 201.847 223.807 207.42 215.74C213.14 207.527 216 198.213 216 187.8C216 173.427 211.307 162.06 201.92 153.7C192.533 145.194 178.966 138.3 161.22 133.02L148.68 129.28C140.173 126.787 133.28 124.147 128 121.36C122.867 118.574 120.3 114.907 120.3 110.36C120.3 105.374 123.087 101.34 128.66 98.2598C134.38 95.1799 141.273 93.6397 149.34 93.6396C157.846 93.6396 164.74 95.2539 170.02 98.4805C175.446 101.707 178.306 105.886 178.6 111.02L184.98 109.26C184.1 102.66 180.433 97.3068 173.98 93.2002C167.527 89.0935 159.313 87.04 149.34 87.04ZM149.34 72.5195C139.807 72.5196 131.226 74.2068 123.6 77.5801C115.973 80.8067 109.96 85.2801 105.56 91C101.306 96.7199 99.1797 103.32 99.1797 110.8C99.1797 120.773 102.993 128.767 110.62 134.78C118.247 140.794 129.174 145.78 143.4 149.74L156.82 153.48C168.7 156.707 178.013 160.96 184.76 166.24C191.506 171.374 194.88 178.414 194.88 187.36C194.88 193.814 192.973 199.534 189.16 204.521C185.347 209.507 179.993 213.393 173.1 216.18C166.206 218.966 158.213 220.36 149.12 220.36C136.654 220.36 126.387 217.793 118.32 212.66C110.4 207.527 105.853 200.707 104.68 192.2L98.0801 193.96C99.6934 203.787 105.12 211.78 114.36 217.94C123.747 223.954 135.334 226.96 149.12 226.96C159.533 226.96 168.627 225.274 176.4 221.9C184.32 218.527 190.48 213.907 194.88 208.04C199.28 202.027 201.48 195.134 201.48 187.36C201.48 176.8 197.667 168.44 190.04 162.28C182.413 155.974 171.78 150.913 158.14 147.1L144.94 143.36C132.18 139.694 122.426 135.44 115.68 130.6C109.08 125.76 105.78 119.16 105.78 110.8C105.78 104.64 107.614 99.2128 111.28 94.5195C115.094 89.6797 120.301 85.9397 126.9 83.2998C133.5 80.5133 140.98 79.1201 149.34 79.1201C161.22 79.1201 171.12 81.687 179.04 86.8203C187.107 91.9536 191.653 98.7737 192.68 107.28L199.28 105.52C198.254 98.9197 195.466 93.1262 190.92 88.1396C186.373 83.1532 180.507 79.3401 173.32 76.7002C166.28 73.9135 158.287 72.5195 149.34 72.5195ZM149.34 58C137.02 58 125.947 60.2737 116.12 64.8203C106.44 69.367 98.7395 75.5996 93.0195 83.5195C87.4462 91.2929 84.6602 100.24 84.6602 110.36C84.6602 124.44 89.2798 135.513 98.5195 143.58C107.76 151.647 121.473 158.32 139.66 163.6L153.3 167.56C161.66 169.906 168.26 172.62 173.1 175.7C177.94 178.78 180.36 182.813 180.36 187.8C180.36 193.08 177.426 197.407 171.56 200.78C165.84 204.153 158.36 205.84 149.12 205.84C140.173 205.84 132.84 204.227 127.12 201C121.547 197.627 118.76 193.447 118.76 188.46L112.38 190.22C112.967 196.966 116.633 202.393 123.38 206.5C130.127 210.46 138.707 212.44 149.12 212.44C160.56 212.44 169.727 210.167 176.62 205.62C183.513 200.927 186.96 194.84 186.96 187.36C186.96 180.614 184.173 175.26 178.6 171.3C173.026 167.34 165.179 163.966 155.06 161.18L141.42 157.44C124.847 152.894 112.306 147.027 103.8 139.84C95.4399 132.507 91.2598 122.826 91.2598 110.8C91.2598 101.853 93.7536 93.9333 98.7402 87.04C103.874 80.1468 110.767 74.7197 119.42 70.7598C128.22 66.6531 138.193 64.5996 149.34 64.5996C159.46 64.5996 168.627 66.2138 176.84 69.4404C185.053 72.6671 191.8 77.2134 197.08 83.0801C202.36 88.9467 205.66 95.7667 206.98 103.54L213.36 101.78C211.747 92.9803 207.933 85.2797 201.92 78.6797C196.053 72.0799 188.574 67.02 179.48 63.5C170.534 59.8333 160.487 58 149.34 58Z" fill="url(#paint0_linear_22_1671)"/>
<defs>
<linearGradient id="paint0_linear_22_1671" x1="300" y1="150" x2="0" y2="150" gradientUnits="userSpaceOnUse">
<stop offset="0.903846"/>
</linearGradient>
</defs>
</svg>
