<svg width="561" height="67" viewBox="0 0 561 67" fill="none" xmlns="http://www.w3.org/2000/svg">
<path d="M545.34 65.52L508.06 1.19995H510.86L548.14 65.52H545.34ZM551.42 65.52L514.22 1.19995H517.02L554.22 65.52H551.42ZM557.58 65.52L520.38 1.19995H523.18L560.38 65.52H557.58ZM536.54 18.56L535.18 16.32L543.9 1.19995H546.7L536.54 18.56ZM539.58 23.92L538.14 21.52L550.06 1.19995H552.86L539.58 23.92ZM542.62 29.12L541.18 26.88L556.14 1.19995H558.94L542.62 29.12ZM506.62 65.52L524.38 35.04L525.74 37.4399L509.42 65.52H506.62ZM512.7 65.52L527.42 40.32L528.78 42.7199L515.5 65.52H512.7ZM518.86 65.52L530.46 45.6L531.82 48L521.66 65.52H518.86Z" fill="url(#paint0_linear_10_339)"/>
<path d="M414.773 65.52L438.053 1.19995H440.613L417.333 65.52H414.773ZM403.573 65.52L426.853 1.19995H429.333L406.133 65.52H403.573ZM409.173 65.52L432.373 1.19995H435.013L411.733 65.52H409.173ZM461.653 65.52L440.773 7.83995L442.053 4.23995L464.213 65.52H461.653ZM456.053 65.52L438.053 15.68L439.253 12L458.613 65.52H456.053ZM450.453 65.52L435.253 23.44L436.533 19.8399L453.013 65.52H450.453ZM427.813 44.24L428.693 41.84H439.253L440.133 44.24H427.813ZM425.893 49.6L426.773 47.2H441.173L442.053 49.6H425.893ZM423.973 54.88L424.853 52.4799H443.093L443.973 54.88H423.973Z" fill="url(#paint1_linear_10_339)"/>
<path d="M303.799 65.52V1.19995H306.199V65.52H303.799ZM293.239 65.52V1.19995H295.639V65.52H293.239ZM298.519 65.52V1.19995H300.919V65.52H298.519ZM355.559 65.52V1.19995H357.959V65.52H355.559ZM344.999 65.52V1.19995H347.399V65.52H344.999ZM350.279 65.52V1.19995H352.679V65.52H350.279ZM328.599 28.4L327.159 26.24L342.119 4.55995V8.79995L328.599 28.4ZM331.799 42.24L309.079 9.75995V5.67995L333.319 40.16L331.799 42.24ZM331.879 33.0399L330.439 30.8799L342.119 14.24V18.4L331.879 33.0399ZM328.599 46.96L309.079 19.1199V14.88L330.039 44.7999L328.599 46.96ZM335.079 37.6L333.639 35.52L342.119 23.44V27.6L335.079 37.6ZM325.399 51.52L309.079 28.3199V24.08L326.839 49.4399L325.399 51.52Z" fill="url(#paint2_linear_10_339)"/>
<path d="M201.064 65.52V1.19995H203.464V65.52H201.064ZM190.504 65.52V1.19995H192.904V65.52H190.504ZM195.784 65.52V1.19995H198.184V65.52H195.784ZM206.344 38.64V36.24H225.144C228.184 36.24 230.931 35.5733 233.384 34.24C235.891 32.9066 237.864 31.0133 239.304 28.56C240.798 26.1066 241.544 23.2266 241.544 19.9199C241.544 16.6133 240.798 13.7333 239.304 11.28C237.864 8.82662 235.891 6.93328 233.384 5.59995C230.931 4.26662 228.184 3.59995 225.144 3.59995H206.344V1.19995H225.144C228.611 1.19995 231.758 1.99995 234.584 3.59995C237.464 5.14661 239.731 7.33328 241.384 10.16C243.091 12.9333 243.944 16.1866 243.944 19.9199C243.944 23.6533 243.091 26.9333 241.384 29.76C239.731 32.5333 237.464 34.72 234.584 36.32C231.758 37.8666 228.611 38.64 225.144 38.64H206.344ZM206.344 33.36V30.96H225.144C228.238 30.96 230.851 30 232.984 28.08C235.171 26.1066 236.264 23.3866 236.264 19.9199C236.264 16.4533 235.171 13.7599 232.984 11.84C230.851 9.86662 228.238 8.87995 225.144 8.87995H206.344V6.47995H225.144C227.651 6.47995 229.918 7.03995 231.944 8.15995C233.971 9.22662 235.598 10.7733 236.824 12.7999C238.051 14.7733 238.664 17.1466 238.664 19.9199C238.664 22.6933 238.051 25.0933 236.824 27.12C235.598 29.0933 233.971 30.6399 231.944 31.76C229.918 32.8266 227.651 33.36 225.144 33.36H206.344ZM206.344 28.08V25.6799H225.144C226.744 25.6799 228.104 25.2266 229.224 24.3199C230.398 23.3599 230.984 21.8933 230.984 19.9199C230.984 17.8933 230.398 16.4266 229.224 15.52C228.104 14.6133 226.744 14.16 225.144 14.16H206.344V11.7599H225.144C227.438 11.7599 229.384 12.4533 230.984 13.84C232.584 15.2266 233.384 17.2533 233.384 19.9199C233.384 22.5866 232.584 24.6133 230.984 26C229.384 27.3866 227.438 28.08 225.144 28.08H206.344ZM206.104 65.52V63.1199H225.544C229.438 63.1199 232.771 62.3733 235.544 60.88C238.371 59.3333 240.531 57.2533 242.024 54.64C243.571 51.9733 244.344 48.96 244.344 45.6C244.344 43.52 244.078 41.5466 243.544 39.68C243.064 37.76 242.291 36.08 241.224 34.64C241.544 34.3733 241.838 34.1066 242.104 33.84C242.424 33.52 242.691 33.1733 242.904 32.8C245.464 36.16 246.744 40.4266 246.744 45.6C246.744 49.3866 245.864 52.7999 244.104 55.84C242.398 58.8266 239.944 61.2 236.744 62.96C233.598 64.6666 229.864 65.52 225.544 65.52H206.104ZM206.104 60.24V57.84H225.544C229.971 57.84 233.331 56.6933 235.624 54.3999C237.918 52.1066 239.064 49.1733 239.064 45.6C239.064 44.2133 238.904 42.88 238.584 41.6C238.264 40.2666 237.811 39.0933 237.224 38.0799C237.651 37.8666 238.024 37.6266 238.344 37.3599C238.664 37.0933 238.931 36.8533 239.144 36.64C239.891 37.8133 240.451 39.1733 240.824 40.72C241.251 42.2666 241.464 43.8933 241.464 45.6C241.464 49.8133 240.078 53.3066 237.304 56.0799C234.531 58.8533 230.611 60.24 225.544 60.24H206.104ZM206.104 54.96V52.56H225.544C228.478 52.56 230.584 51.92 231.864 50.64C233.144 49.36 233.784 47.68 233.784 45.6C233.784 43.6266 233.278 41.92 232.264 40.4799C232.638 40.3733 233.011 40.2399 233.384 40.0799C233.758 39.8666 234.131 39.6533 234.504 39.4399C235.624 41.2533 236.184 43.3066 236.184 45.6C236.184 48.3733 235.304 50.64 233.544 52.4C231.838 54.1066 229.171 54.96 225.544 54.96H206.104Z" fill="url(#paint3_linear_10_339)"/>
<path d="M118.413 56.16C115.373 56.16 112.839 55.5466 110.813 54.32C108.839 53.0933 107.346 51.4666 106.333 49.4399C105.373 47.3599 104.893 45.0666 104.893 42.56V1.19995H107.293V42.56C107.293 45.6533 108.173 48.2933 109.933 50.4799C111.693 52.6666 114.519 53.7599 118.413 53.7599C122.306 53.7599 125.133 52.6666 126.893 50.4799C128.653 48.2933 129.533 45.6533 129.533 42.56V1.19995H131.933V42.56C131.933 45.0666 131.426 47.3599 130.413 49.4399C129.453 51.4666 127.959 53.0933 125.933 54.32C123.959 55.5466 121.453 56.16 118.413 56.16ZM118.413 66.7199C113.453 66.7199 109.159 65.6533 105.533 63.52C101.959 61.3333 99.1859 58.3999 97.2125 54.7199C95.2925 51.0399 94.3325 46.9866 94.3325 42.56V1.19995H96.7325V42.56C96.7325 46.56 97.5859 50.2133 99.2925 53.52C101.053 56.8266 103.533 59.4666 106.733 61.4399C109.986 63.3599 113.879 64.32 118.413 64.32C122.946 64.32 126.813 63.3599 130.013 61.4399C133.266 59.4666 135.746 56.8266 137.453 53.52C139.213 50.2133 140.093 46.56 140.093 42.56V1.19995H142.493V42.56C142.493 46.9866 141.506 51.0399 139.533 54.7199C137.613 58.3999 134.866 61.3333 131.293 63.52C127.719 65.6533 123.426 66.7199 118.413 66.7199ZM118.413 61.4399C114.413 61.4399 110.999 60.5866 108.173 58.88C105.399 57.1733 103.266 54.9066 101.773 52.0799C100.333 49.1999 99.6125 46.0266 99.6125 42.56V1.19995H102.013V42.56C102.013 45.6 102.626 48.3733 103.853 50.88C105.133 53.3333 106.999 55.3066 109.453 56.7999C111.906 58.2933 114.893 59.0399 118.413 59.0399C121.986 59.0399 124.973 58.2933 127.373 56.7999C129.826 55.3066 131.666 53.3333 132.893 50.88C134.173 48.3733 134.813 45.6 134.813 42.56V1.19995H137.213V42.56C137.213 46.0266 136.466 49.1999 134.973 52.0799C133.533 54.9066 131.399 57.1733 128.573 58.88C125.799 60.5866 122.413 61.4399 118.413 61.4399Z" fill="url(#paint4_linear_10_339)"/>
<path d="M23.68 56.16C19.8933 56.16 16.7733 55.44 14.32 54C11.8667 52.5067 10.5333 50.5333 10.32 48.08L12.64 47.44C12.64 49.2533 13.6533 50.7733 15.68 52C17.76 53.1733 20.4267 53.76 23.68 53.76C27.04 53.76 29.76 53.1467 31.84 51.92C33.9733 50.6933 35.04 49.12 35.04 47.2C35.04 45.3867 34.16 43.92 32.4 42.8C30.64 41.68 28.24 40.6933 25.2 39.84L20.24 38.4C13.6267 36.48 8.64 34.0533 5.28 31.12C1.92 28.1867 0.24 24.16 0.24 19.04C0.24 15.36 1.25333 12.1067 3.28 9.28C5.36 6.4 8.16 4.13334 11.68 2.48C15.2533 0.826667 19.28 0 23.76 0C27.8133 0 31.4667 0.666668 34.72 2C38.0267 3.28 40.7467 5.12 42.88 7.52C45.0667 9.92 46.4533 12.72 47.04 15.92L44.72 16.56C44.24 13.7333 43.04 11.2533 41.12 9.12C39.2 6.98667 36.7467 5.33333 33.76 4.16C30.7733 2.98667 27.44 2.4 23.76 2.4C19.7067 2.4 16.08 3.14667 12.88 4.64C9.73333 6.08 7.22667 8.05334 5.36 10.56C3.54667 13.0667 2.64 15.9467 2.64 19.2C2.64 23.5733 4.16 27.0933 7.2 29.76C10.2933 32.3733 14.8533 34.5067 20.88 36.16L25.84 37.52C29.52 38.5333 32.3733 39.76 34.4 41.2C36.4267 42.64 37.44 44.5867 37.44 47.04C37.44 49.76 36.1867 51.9733 33.68 53.68C31.1733 55.3333 27.84 56.16 23.68 56.16ZM23.68 61.44C18.6667 61.44 14.4533 60.3467 11.04 58.16C7.68 55.92 5.70667 53.0133 5.12 49.44L7.52 48.8C7.94667 51.8933 9.6 54.3733 12.48 56.24C15.4133 58.1067 19.1467 59.04 23.68 59.04C26.9867 59.04 29.8933 58.5333 32.4 57.52C34.9067 56.5067 36.8533 55.0933 38.24 53.28C39.6267 51.4667 40.32 49.3867 40.32 47.04C40.32 43.7867 39.0933 41.2267 36.64 39.36C34.1867 37.44 30.8 35.8933 26.48 34.72L21.6 33.36C16.4267 31.92 12.4533 30.1067 9.68 27.92C6.90667 25.7333 5.52 22.8267 5.52 19.2C5.52 16.48 6.29333 14.08 7.84 12C9.44 9.92 11.6267 8.29334 14.4 7.12C17.1733 5.89334 20.2933 5.28 23.76 5.28C27.0133 5.28 29.92 5.78667 32.48 6.8C35.0933 7.76 37.2267 9.14667 38.88 10.96C40.5333 12.7733 41.5467 14.88 41.92 17.28L39.52 17.92C39.1467 14.8267 37.4933 12.3467 34.56 10.48C31.68 8.61334 28.08 7.68 23.76 7.68C20.72 7.68 18 8.18667 15.6 9.2C13.2 10.16 11.3067 11.52 9.92 13.28C8.58667 14.9867 7.92 16.96 7.92 19.2C7.92 22.24 9.12 24.64 11.52 26.4C13.9733 28.16 17.52 29.7067 22.16 31.04L26.96 32.4C31.92 33.7867 35.7867 35.6267 38.56 37.92C41.3333 40.16 42.72 43.2 42.72 47.04C42.72 49.8667 41.92 52.3733 40.32 54.56C38.72 56.6933 36.48 58.3733 33.6 59.6C30.7733 60.8267 27.4667 61.44 23.68 61.44ZM23.68 66.72C19.52 66.72 15.76 66.08 12.4 64.8C9.09333 63.4667 6.34667 61.6267 4.16 59.28C2.02667 56.88 0.64 54.0533 0 50.8L2.32 50.16C2.85333 53.04 4.05333 55.5467 5.92 57.68C7.84 59.76 10.32 61.3867 13.36 62.56C16.4 63.7333 19.84 64.32 23.68 64.32C28.0533 64.32 31.8667 63.6 35.12 62.16C38.4267 60.6667 40.9867 58.64 42.8 56.08C44.6667 53.4667 45.6 50.4533 45.6 47.04C45.6 42.5067 44.0267 38.88 40.88 36.16C37.7333 33.44 33.3067 31.2533 27.6 29.6L22.88 28.24C18.9867 27.12 16 25.8933 13.92 24.56C11.84 23.2267 10.8 21.44 10.8 19.2C10.8 16.5867 12.0267 14.5067 14.48 12.96C16.9333 11.36 20.0267 10.56 23.76 10.56C27.3867 10.56 30.3733 11.3067 32.72 12.8C35.0667 14.2933 36.4 16.24 36.72 18.64L34.4 19.28C34.2933 17.4133 33.2533 15.8933 31.28 14.72C29.36 13.5467 26.8533 12.96 23.76 12.96C20.8267 12.96 18.32 13.52 16.24 14.64C14.2133 15.76 13.2 17.2267 13.2 19.04C13.2 20.6933 14.1333 22.0267 16 23.04C17.92 24.0533 20.4267 25.0133 23.52 25.92L28.08 27.28C34.5333 29.2 39.4667 31.7067 42.88 34.8C46.2933 37.84 48 41.9733 48 47.2C48 50.9867 46.96 54.3733 44.88 57.36C42.8533 60.2933 40 62.5867 36.32 64.24C32.6933 65.8933 28.48 66.72 23.68 66.72Z" fill="url(#paint5_linear_10_339)"/>
<defs>
<linearGradient id="paint0_linear_10_339" x1="560.38" y1="33.3599" x2="506.62" y2="33.3599" gradientUnits="userSpaceOnUse">
<stop stop-color="#BF9300"/>
<stop offset="0.504808" stop-color="#FFE797"/>
<stop offset="1" stop-color="#BF9300"/>
</linearGradient>
<linearGradient id="paint1_linear_10_339" x1="464.213" y1="33.3599" x2="403.573" y2="33.3599" gradientUnits="userSpaceOnUse">
<stop stop-color="#BF9300"/>
<stop offset="0.504808" stop-color="#FFE797"/>
<stop offset="1" stop-color="#BF9300"/>
</linearGradient>
<linearGradient id="paint2_linear_10_339" x1="357.959" y1="33.3599" x2="293.239" y2="33.3599" gradientUnits="userSpaceOnUse">
<stop stop-color="#BF9300"/>
<stop offset="0.504808" stop-color="#FFE797"/>
<stop offset="1" stop-color="#BF9300"/>
</linearGradient>
<linearGradient id="paint3_linear_10_339" x1="246.744" y1="33.3599" x2="190.504" y2="33.3599" gradientUnits="userSpaceOnUse">
<stop stop-color="#BF9300"/>
<stop offset="0.504808" stop-color="#FFE797"/>
<stop offset="1" stop-color="#BF9300"/>
</linearGradient>
<linearGradient id="paint4_linear_10_339" x1="142.493" y1="33.9599" x2="94.3325" y2="33.9599" gradientUnits="userSpaceOnUse">
<stop stop-color="#BF9300"/>
<stop offset="0.504808" stop-color="#FFE797"/>
<stop offset="1" stop-color="#BF9300"/>
</linearGradient>
<linearGradient id="paint5_linear_10_339" x1="48" y1="33.36" x2="0" y2="33.36" gradientUnits="userSpaceOnUse">
<stop stop-color="#BF9300"/>
<stop offset="0.504808" stop-color="#FFE797"/>
<stop offset="1" stop-color="#BF9300"/>
</linearGradient>
</defs>
</svg>
