<svg width="573" height="77" viewBox="0 0 573 77" fill="none" xmlns="http://www.w3.org/2000/svg">
<g filter="url(#filter0_d_22_1655)">
<path d="M530.815 35.7937L532.175 38.1931L532.316 38.4431L532.173 38.6912L515.852 66.7712L515.708 67.0203H511.75L512.188 66.2683L529.948 35.7878L530.386 35.0369L530.815 35.7937ZM533.855 41.073L535.215 43.4734L535.356 43.7234L535.212 43.9714L521.932 66.7712L521.787 67.0203H517.829L518.268 66.2673L532.988 41.0681L533.427 40.3171L533.855 41.073ZM536.895 46.3533L538.255 48.7537L538.396 49.0027L538.253 49.2507L528.093 66.7712L527.948 67.0203H523.99L524.428 66.2683L536.028 46.3484L536.466 45.5964L536.895 46.3533ZM517.148 1.69995L517.293 1.94897L554.572 66.2693L555.008 67.0203H551.052L550.907 66.7703L513.628 2.45093L513.192 1.69995H517.148ZM523.308 1.69995L523.453 1.94995L560.653 66.2693L561.087 67.0203H557.132L556.987 66.7703L519.787 2.44995L519.353 1.69995H523.308ZM529.469 1.69995L529.613 1.94995L566.812 66.2693L567.247 67.0203H563.292L563.147 66.7703L525.947 2.44995L525.514 1.69995H529.469ZM565.811 1.69995L565.372 2.4519L549.052 30.3718L548.641 31.0759L548.199 30.3904L546.76 28.1501L546.594 27.8923L546.748 27.6287L561.708 1.948L561.852 1.69995H565.811ZM559.731 1.69995L559.292 2.4519L546.012 25.1726L545.586 25.9011L545.151 25.1775L543.711 22.7771L543.558 22.5232L543.709 22.2673L555.629 1.94702L555.773 1.69995H559.731ZM553.572 1.69995L553.132 2.45288L542.972 19.8123L542.548 20.5359L542.112 19.8191L540.753 17.5798L540.599 17.3269L540.747 17.0701L549.467 1.94995L549.611 1.69995H553.572Z" fill="url(#paint0_linear_22_1655)" stroke="black"/>
<path d="M436.045 1.69995L435.804 2.36987L412.603 66.6892L412.484 67.0203H408.86L409.103 66.3494L432.383 2.03003L432.503 1.69995H436.045ZM441.725 1.69995L441.483 2.36987L418.203 66.6902L418.084 67.0203H414.461L414.703 66.3503L437.903 2.03003L438.022 1.69995H441.725ZM447.326 1.69995L447.083 2.36987L423.804 66.6902L423.683 67.0203H420.06L420.303 66.3494L443.583 2.03003L443.702 1.69995H447.326ZM443.004 20.6707L459.483 66.3503L459.725 67.0203H456.102L455.983 66.6902L440.783 24.6101L440.722 24.4412L440.782 24.2722L442.062 20.6726L442.53 19.3572L443.004 20.6707ZM445.724 12.8298L465.083 66.3503L465.326 67.0203H461.702L461.583 66.6902L443.583 16.8494L443.524 16.6882L443.578 16.5251L444.778 12.8445L445.228 11.4626L445.724 12.8298ZM448.523 5.07007L470.683 66.3503L470.926 67.0203H467.303L467.182 66.6902L446.303 9.0105L446.242 8.84155L446.302 8.67261L447.582 5.07202L448.049 3.75854L448.523 5.07007ZM449.442 52.9802L449.562 53.3074L450.442 55.7078L450.689 56.3796H429.258L429.504 55.7078L430.384 53.3074L430.504 52.9802H449.442ZM447.522 47.7L447.642 48.0281L448.522 50.4275L448.769 51.1003H431.178L431.424 50.4275L432.304 48.0281L432.424 47.7H447.522ZM445.602 42.3396L445.723 42.6677L446.602 45.0681L446.849 45.74H433.098L433.344 45.0681L434.224 42.6677L434.344 42.3396H445.602Z" fill="url(#paint1_linear_22_1655)" stroke="black"/>
<path d="M302.139 1.69995V67.0203H298.739V1.69995H302.139ZM307.418 1.69995V67.0203H304.019V1.69995H307.418ZM312.699 1.69995V67.0203H309.298V1.69995H312.699ZM353.899 1.69995V67.0203H350.499V1.69995H353.899ZM359.179 1.69995V67.0203H355.779V1.69995H359.179ZM364.458 1.69995V67.0203H361.059V1.69995H364.458ZM315.489 24.7927L333.249 50.1531L333.448 50.4382L333.25 50.7244L331.81 52.8044L331.402 53.3933L330.99 52.8074L314.669 29.6072L314.579 29.4783V23.4939L315.489 24.7927ZM315.488 15.5935L336.449 45.5134L336.644 45.7927L336.455 46.0769L335.015 48.2371L334.609 48.8455L334.189 48.2468L314.669 20.407L314.579 20.2781V14.2947L315.488 15.5935ZM315.488 6.39233L339.728 40.8728L339.934 41.1658L339.722 41.4548L338.203 43.5349L337.79 44.0994L337.389 43.5261L314.669 11.0466L314.579 10.9177V5.09937L315.488 6.39233ZM348.619 28.7585L348.528 28.8875L341.488 38.8875L341.076 39.4734L340.667 38.8845L339.228 36.8044L339.029 36.5183L339.23 36.2332L347.709 24.1531L348.619 22.8572V28.7585ZM348.619 19.5574L348.529 19.6863L338.289 34.3269L337.869 34.9265L337.462 34.3171L336.023 32.157L335.833 31.8728L336.03 31.5925L347.709 14.9529L348.619 13.657V19.5574ZM348.619 9.95581L348.531 10.0837L335.01 29.6843L334.591 30.2908L334.183 29.6775L332.743 27.5173L332.554 27.2351L332.748 26.9558L347.708 5.27612L348.619 3.95483V9.95581Z" fill="url(#paint2_linear_22_1655)" stroke="black"/>
<path d="M199.405 1.69995V67.0203H196.004V1.69995H199.405ZM204.684 1.69995V67.0203H201.285V1.69995H204.684ZM209.964 1.69995V67.0203H206.564V1.69995H209.964ZM249.302 33.4968C251.942 36.962 253.245 41.3427 253.245 46.6003C253.245 50.4677 252.345 53.9687 250.538 57.0906L250.537 57.0896C248.782 60.1601 246.26 62.5971 242.986 64.3982L242.983 64.3992C239.749 66.153 235.931 67.0203 231.544 67.0203H211.604V63.6199H231.544C235.373 63.6199 238.62 62.886 241.304 61.4412C244.056 59.9357 246.146 57.9196 247.59 55.3923L247.592 55.3894C249.091 52.8058 249.844 49.8802 249.844 46.6003C249.844 44.5635 249.584 42.6361 249.064 40.8171L249.061 40.8093L249.059 40.8015C248.593 38.9385 247.846 37.3193 246.823 35.9373L246.542 35.5583L246.905 35.2556C247.214 34.9978 247.496 34.7409 247.75 34.4861C248.041 34.1959 248.28 33.8843 248.47 33.5515L248.845 32.8962L249.302 33.4968ZM245.566 37.3718C246.343 38.5937 246.922 40.0006 247.306 41.5867C247.746 43.1793 247.964 44.8516 247.964 46.6003C247.964 50.9352 246.532 54.5589 243.658 57.4333C240.765 60.3256 236.703 61.74 231.544 61.74H211.604V58.3396H231.544C235.888 58.3396 239.101 57.2161 241.271 55.0466C243.46 52.8571 244.564 50.0557 244.564 46.6003C244.564 45.2525 244.409 43.9598 244.099 42.7214L244.098 42.7166C243.788 41.4225 243.35 40.2959 242.792 39.3308L242.525 38.8708L243 38.6326C243.397 38.4341 243.738 38.2149 244.024 37.9763C244.336 37.7161 244.591 37.4863 244.791 37.2869L245.232 36.8455L245.566 37.3718ZM240.93 40.1775C242.103 42.0757 242.684 44.2217 242.684 46.6003C242.684 49.4895 241.763 51.8889 239.898 53.7537C238.059 55.5921 235.238 56.4597 231.544 56.4597H211.604V53.0603H231.544C234.424 53.0603 236.369 52.4291 237.511 51.2869C238.683 50.1149 239.285 48.569 239.285 46.6003C239.285 44.7171 238.803 43.1131 237.856 41.7673L237.451 41.1921L238.127 40.9988C238.472 40.9003 238.818 40.7773 239.165 40.6296C239.528 40.4217 239.892 40.2136 240.256 40.0056L240.676 39.7664L240.93 40.1775ZM231.144 1.69995L231.806 1.70972C235.094 1.80583 238.106 2.62235 240.831 4.16479H240.83C243.783 5.75307 246.113 7.99975 247.81 10.8982L248.13 11.4402C249.678 14.181 250.445 17.346 250.445 20.9197C250.445 24.7309 249.572 28.1015 247.813 31.0154C246.114 33.8659 243.783 36.1147 240.828 37.7566L240.825 37.7585C237.919 39.3485 234.688 40.1404 231.144 40.1404H211.844V36.74H231.144C234.108 36.74 236.772 36.0906 239.146 34.8005L239.15 34.7986C241.575 33.5088 243.48 31.6801 244.874 29.3064L244.877 29.2996C246.316 26.9359 247.044 24.1486 247.044 20.9197C247.044 17.6907 246.316 14.9035 244.877 12.5398L244.874 12.533C243.48 10.1593 241.575 8.33156 239.15 7.04175L239.146 7.03882C236.772 5.74878 234.108 5.10034 231.144 5.10034H211.844V1.69995H231.144ZM231.144 6.98022C233.724 6.98022 236.073 7.55657 238.177 8.71753L238.568 8.9314C240.496 10.0302 242.057 11.5679 243.25 13.5359L243.482 13.9285C244.61 15.913 245.165 18.2494 245.165 20.9197C245.165 23.7684 244.534 26.2615 243.252 28.3787L243.25 28.3835C241.978 30.4292 240.288 32.0365 238.186 33.198L238.177 33.2029C236.072 34.3108 233.724 34.8601 231.144 34.8601H211.844V31.4597H231.144C234.124 31.4597 236.615 30.5389 238.649 28.7087C240.712 26.8471 241.764 24.2723 241.764 20.9197C241.764 17.5669 240.712 15.0223 238.655 13.2156L238.645 13.2068C236.61 11.3248 234.12 10.3796 231.144 10.3796H211.844V6.98022H231.144ZM231.144 12.2595C233.547 12.2595 235.613 12.9895 237.312 14.4617C239.049 15.967 239.884 18.1487 239.884 20.9197C239.884 23.6907 239.049 25.8724 237.312 27.3777C235.613 28.8499 233.547 29.5798 231.144 29.5798H211.844V26.1804H231.144C232.643 26.1804 233.889 25.7579 234.91 24.9314C235.933 24.0934 236.485 22.7906 236.485 20.9197C236.485 18.9873 235.928 17.6959 234.918 16.9158L234.91 16.9089C233.889 16.0823 232.643 15.6599 231.144 15.6599H211.844V12.2595H231.144Z" fill="url(#paint3_linear_22_1655)" stroke="black"/>
<path d="M103.233 1.69995V43.5603C103.233 47.4842 104.069 51.056 105.734 54.2849C107.451 57.5102 109.866 60.0831 112.987 62.0095L113.587 62.3484C116.627 63.9898 120.23 64.8201 124.413 64.8201C128.875 64.8201 132.648 63.8757 135.755 62.0115C138.931 60.0849 141.345 57.513 143.008 54.2908L143.011 54.2849C144.73 51.0556 145.592 47.4839 145.592 43.5603V1.69995H148.993V43.5603C148.993 48.0619 147.988 52.1945 145.975 55.95L145.976 55.9509C144.014 59.7121 141.203 62.7125 137.553 64.946L137.549 64.949C133.884 67.1372 129.498 68.2195 124.413 68.2195C119.38 68.2195 114.995 67.137 111.279 64.9509L111.272 64.946C107.623 62.7132 104.787 59.7143 102.772 55.9558L102.769 55.9509C100.809 52.195 99.8326 48.0617 99.8325 43.5603V1.69995H103.233ZM108.512 1.69995V43.5603C108.512 46.526 109.109 49.2192 110.295 51.6482C111.532 54.0176 113.334 55.925 115.712 57.3728C118.071 58.8087 120.964 59.5398 124.413 59.5398C127.917 59.5398 130.806 58.808 133.108 57.3757L133.113 57.3728C135.49 55.9259 137.262 54.0211 138.445 51.656L138.447 51.6521C139.688 49.2215 140.313 46.5275 140.313 43.5603V1.69995H143.712V43.5603C143.712 47.1 142.949 50.3514 141.417 53.3064C139.933 56.2197 137.734 58.5555 134.831 60.3083L134.83 60.3074C131.962 62.0707 128.482 62.9402 124.413 62.9402C120.341 62.9402 116.834 62.071 113.915 60.3083L113.911 60.3054C111.063 58.5528 108.866 56.2204 107.331 53.3132L107.326 53.3035C105.848 50.3489 105.113 47.0984 105.113 43.5603V1.69995H108.512ZM113.792 1.69995V43.5603C113.793 46.5518 114.641 49.0782 116.322 51.1667C117.954 53.1945 120.609 54.2595 124.413 54.2595C128.216 54.2595 130.871 53.1945 132.503 51.1667C134.184 49.0782 135.033 46.5518 135.033 43.5603V1.69995H138.432V43.5603C138.432 46.1341 137.911 48.5008 136.864 50.6531C135.86 52.7718 134.299 54.4698 132.196 55.7439C130.122 57.0327 127.518 57.6599 124.413 57.6599C121.307 57.6599 118.677 57.0334 116.553 55.7478L116.548 55.7449C114.499 54.4708 112.941 52.7752 111.885 50.6638L111.881 50.657L111.878 50.6492C110.885 48.4977 110.392 46.1322 110.392 43.5603V1.69995H113.792Z" fill="url(#paint4_linear_22_1655)" stroke="black"/>
<path d="M29.7598 11.0596C33.453 11.0596 36.5404 11.8203 38.9883 13.3779C41.4388 14.9373 42.8733 17.0052 43.2158 19.5742L43.2734 20.0059L42.8525 20.1221L40.5332 20.7617L39.9365 20.9268L39.9004 20.3086C39.8054 18.6467 38.8919 17.2598 37.0244 16.1494L37.0195 16.1465C35.2022 15.0359 32.7942 14.46 29.7598 14.46C26.8898 14.46 24.469 15.0079 22.4775 16.0801L22.4766 16.0791C20.561 17.1391 19.7002 18.462 19.7002 20.04C19.7002 21.4548 20.478 22.6432 22.2334 23.5977L22.9658 23.9678C24.7404 24.8264 26.9695 25.6518 29.6602 26.4404H29.6631L34.2227 27.8008L35.4229 28.1699C41.3357 30.0516 45.9427 32.4642 49.2129 35.4268L49.5391 35.7256C52.856 38.8444 54.5 43.0208 54.5 48.2002C54.5 52.084 53.4302 55.5699 51.29 58.6436L51.291 58.6445C49.206 61.6621 46.2771 64.0107 42.5254 65.6963C38.8222 67.3841 34.5359 68.2197 29.6797 68.2197C25.4684 68.2197 21.6466 67.5723 18.2217 66.2676L18.2129 66.2637C14.846 64.906 12.0358 63.027 9.79395 60.6211L9.78613 60.6123C7.59152 58.1434 6.16641 55.2344 5.50977 51.8965L5.41992 51.4414L5.86719 51.3184L8.1875 50.6777L8.71289 50.5332L8.81152 51.0693C9.3286 53.8612 10.4886 56.2827 12.291 58.3447C14.1513 60.3587 16.5625 61.9445 19.54 63.0938C22.5132 64.2413 25.8906 64.8203 29.6797 64.8203C33.9973 64.8203 37.7381 64.1092 40.9141 62.7041C44.1525 61.2416 46.6372 59.2677 48.3916 56.791L48.3936 56.7891C50.1955 54.2661 51.0996 51.3559 51.0996 48.04C51.0996 43.6372 49.5788 40.1539 46.5527 37.5381C43.4788 34.881 39.1257 32.7213 33.4609 31.0801V31.0791L28.7412 29.7207V29.7197C24.8274 28.5938 21.7886 27.3511 19.6504 25.9805C17.4446 24.5665 16.2999 22.6303 16.2998 20.2002C16.2998 17.394 17.6335 15.1634 20.2129 13.5371C22.766 11.874 25.959 11.0596 29.7598 11.0596ZM29.7598 5.78027C33.0649 5.78027 36.0359 6.29464 38.6641 7.33496H38.6631C41.3366 8.31871 43.537 9.74547 45.249 11.623C46.9678 13.5081 48.0255 15.705 48.4141 18.2031L48.4834 18.6475L48.0488 18.7627L45.6484 19.4033L45.0928 19.5518L45.0234 18.9795C44.6702 16.0535 43.1153 13.6981 40.292 11.9014L40.2881 11.8994C37.5077 10.0973 34.0081 9.17969 29.7598 9.17969C26.7759 9.17971 24.1238 9.67695 21.7949 10.6602L21.7861 10.6641C19.4557 11.5962 17.6379 12.9067 16.3135 14.5869C15.0513 16.2025 14.4199 18.0676 14.4199 20.2002C14.42 23.0832 15.5459 25.331 17.8115 26.9941L18.2725 27.3125C20.6389 28.8959 23.9711 30.3159 28.2949 31.5586H28.2959L33.0967 32.9189H33.0957C38.0931 34.3162 42.0293 36.1803 44.874 38.5312L45.1416 38.7529C47.8639 41.0739 49.2197 44.1865 49.2197 48.04C49.2197 50.968 48.3892 53.5793 46.7236 55.8555L46.7197 55.8604C45.0589 58.0746 42.7432 59.8027 39.7979 61.0576L39.7988 61.0586C36.8967 62.318 33.5195 62.9404 29.6797 62.9404C24.5936 62.9404 20.2814 61.8302 16.7705 59.5811L16.7627 59.5762C13.3022 57.2692 11.2389 54.2479 10.627 50.5215L10.5527 50.0732L10.9912 49.957L13.3916 49.3164L13.9375 49.1709L14.0156 49.7314C14.4203 52.6655 15.9803 55.0239 18.752 56.8203H18.751C21.5826 58.6214 25.2146 59.54 29.6797 59.54C32.936 59.54 35.7774 59.0412 38.2129 58.0566C40.6518 57.0707 42.5198 55.7065 43.8428 53.9766C45.1608 52.253 45.8203 50.2802 45.8203 48.04C45.8203 44.9328 44.6582 42.524 42.3369 40.7578L42.332 40.7539C39.9489 38.8888 36.6302 37.365 32.3486 36.2021L32.3457 36.2012L27.4658 34.8418C22.2586 33.3924 18.2153 31.5558 15.3701 29.3125C12.473 27.0281 11.0196 23.975 11.0195 20.2002C11.0195 17.3784 11.8244 14.8719 13.4385 12.7012L13.4434 12.6953C15.1033 10.5374 17.3642 8.86111 20.2051 7.65918C23.0487 6.40281 26.2365 5.7803 29.7598 5.78027ZM29.7598 0.5C33.8681 0.5 37.5873 1.17576 40.9092 2.53711H40.9082C44.2757 3.84191 47.0608 5.72215 49.25 8.18359L49.6621 8.65137C51.6749 11.015 52.9665 13.7441 53.5322 16.8301L53.6143 17.2803L53.1729 17.4023L50.8525 18.042L50.3193 18.1895L50.2275 17.6436C49.7634 14.9104 48.6047 12.5171 46.748 10.4541C44.8859 8.38515 42.5 6.77327 39.5771 5.625C36.6567 4.47769 33.3862 3.90039 29.7598 3.90039C25.769 3.90042 22.2163 4.63475 19.0918 6.09277L19.0879 6.09473C16.0115 7.50258 13.5745 9.42278 11.7637 11.8525L11.7646 11.8535C10.0165 14.2702 9.13965 17.0466 9.13965 20.2002C9.13969 24.4392 10.6051 27.8154 13.5225 30.3779C16.5385 32.9259 21.0218 35.0342 27.0127 36.6777L31.9727 38.0381L32.6592 38.2324C36.0432 39.2163 38.7278 40.3982 40.6895 41.792C42.846 43.3243 43.9404 45.4222 43.9404 48.04C43.9404 50.9465 42.586 53.3065 39.9609 55.0938L39.9551 55.0977C37.3409 56.8218 33.901 57.6602 29.6797 57.6602C25.833 57.6601 22.6187 56.929 20.0674 55.4316L20.0596 55.4268C17.4963 53.8664 16.0518 51.7625 15.8223 49.123L15.7861 48.709L16.1875 48.5977L18.5068 47.958L19.1396 47.7832V48.4404C19.1398 50.0217 20.0059 51.3986 21.9258 52.5645L22.3047 52.7676C24.2329 53.7525 26.6826 54.2597 29.6797 54.2598C32.9837 54.2598 35.6073 53.6561 37.5859 52.4893L37.5908 52.4863C39.6193 51.3199 40.54 49.8896 40.54 48.2002C40.54 46.586 39.773 45.2661 38.1318 44.2217C36.4285 43.1377 34.0789 42.1674 31.0645 41.3213L31.0605 41.3203L26.1006 39.8799C19.4518 37.9496 14.3877 35.4971 10.9512 32.4971C7.46576 29.4542 5.74024 25.2807 5.74023 20.04C5.74023 16.262 6.78281 12.905 8.87402 9.98828L8.875 9.9873C11.0093 7.03223 13.8785 4.71321 17.4678 3.02734L17.4697 3.02637C21.1173 1.33868 25.2174 0.500029 29.7598 0.5Z" fill="url(#paint5_linear_22_1655)" stroke="black"/>
</g>
<defs>
<filter id="filter0_d_22_1655" x="0.839722" y="0" width="571.274" height="76.72" filterUnits="userSpaceOnUse" color-interpolation-filters="sRGB">
<feFlood flood-opacity="0" result="BackgroundImageFix"/>
<feColorMatrix in="SourceAlpha" type="matrix" values="0 0 0 0 0 0 0 0 0 0 0 0 0 0 0 0 0 0 127 0" result="hardAlpha"/>
<feOffset dy="4"/>
<feGaussianBlur stdDeviation="2"/>
<feComposite in2="hardAlpha" operator="out"/>
<feColorMatrix type="matrix" values="0 0 0 0 0 0 0 0 0 0 0 0 0 0 0 0 0 0 0.25 0"/>
<feBlend mode="normal" in2="BackgroundImageFix" result="effect1_dropShadow_22_1655"/>
<feBlend mode="normal" in="SourceGraphic" in2="effect1_dropShadow_22_1655" result="shape"/>
</filter>
<linearGradient id="paint0_linear_22_1655" x1="566.38" y1="34.3599" x2="512.62" y2="34.3599" gradientUnits="userSpaceOnUse">
<stop offset="1"/>
</linearGradient>
<linearGradient id="paint1_linear_22_1655" x1="470.213" y1="34.3599" x2="409.573" y2="34.3599" gradientUnits="userSpaceOnUse">
<stop offset="1"/>
</linearGradient>
<linearGradient id="paint2_linear_22_1655" x1="363.959" y1="34.3599" x2="299.239" y2="34.3599" gradientUnits="userSpaceOnUse">
<stop offset="1"/>
</linearGradient>
<linearGradient id="paint3_linear_22_1655" x1="252.744" y1="34.3599" x2="196.504" y2="34.3599" gradientUnits="userSpaceOnUse">
<stop offset="1"/>
</linearGradient>
<linearGradient id="paint4_linear_22_1655" x1="148.493" y1="34.9599" x2="100.333" y2="34.9599" gradientUnits="userSpaceOnUse">
<stop offset="1"/>
</linearGradient>
<linearGradient id="paint5_linear_22_1655" x1="54" y1="34.36" x2="6" y2="34.36" gradientUnits="userSpaceOnUse">
<stop offset="1"/>
</linearGradient>
</defs>
</svg>
